<svg xmlns="http://www.w3.org/2000/svg" aria-hidden="true"
    style="position: absolute; width: 0; height: 0; overflow: hidden;">
    <defs>
        <symbol id="icon-hamburger" viewBox="0 0 47 32">
            <path 
                d="M.944.089C.803.13.532.317.343.506L0 .849v2.506l.332.332c.636.636-1.54.583 23.293.56l22.106-.019.407-.225.407-.227V.401L45.739 0 23.47.007C9.535.011 1.105.042.943.088zm.124 13.486c-.359.109-.742.384-.909.653-.141.23-.159.384-.159 1.412 0 1.004.02 1.187.151 1.401.217.355.735.628 1.364.72.742.108 43.081.108 43.821 0 .295-.042.679-.156.854-.252l.316-.175v-3.408l-.698-.39-22.263-.013c-12.246-.007-22.361.016-22.477.051zm.151 13.506a1.69 1.69 0 0 0-.972.571l-.002.003-.244.279v2.497l.332.332c.636.634-1.54.582 23.293.56 20.793-.019 22.122-.028 22.378-.154.573-.285.543-.17.543-2.022v-1.673l-.892-.438-22.071-.012c-12.748-.007-22.193.016-22.364.057z" />
        </symbol>
        <symbol id="close" viewBox="0 0 32 32">
            <path
                d="M19.141 16.123l10.676-10.668c0.36-0.42 0.548-0.96 0.527-1.513s-0.251-1.077-0.642-1.467c-0.391-0.391-0.915-0.62-1.469-0.641s-1.093 0.167-1.514 0.526l-10.676 10.558-10.742-10.734c-0.42-0.36-0.961-0.548-1.514-0.526s-1.077 0.25-1.469 0.641c-0.391 0.391-0.62 0.915-0.642 1.467s0.167 1.093 0.527 1.513l10.72 10.844-10.501 10.361c-0.23 0.197-0.417 0.439-0.549 0.711s-0.206 0.569-0.218 0.871 0.039 0.604 0.15 0.885c0.11 0.282 0.278 0.538 0.492 0.751s0.47 0.381 0.752 0.492c0.282 0.11 0.584 0.161 0.886 0.15s0.599-0.086 0.872-0.217c0.273-0.132 0.515-0.318 0.712-0.548l10.479-10.471 10.413 10.405c0.42 0.359 0.961 0.547 1.514 0.526s1.077-0.25 1.469-0.641c0.391-0.391 0.621-0.915 0.642-1.467s-0.167-1.093-0.527-1.512l-10.369-10.295z"></path>
        </symbol>
    </defs>
</svg>